<?xml version="1.0" encoding="UTF-8" standalone="no"?>
<svg
   viewBox="0 0 983.39136 843.38971"
   version="1.1"
   id="svg4"
   sodipodi:docname="robot.svg"
   inkscape:version="1.4.3 (0d15f75, 2025-12-25)"
   xml:space="preserve"
   width="983.39136"
   height="843.38971"
   xmlns:inkscape="http://www.inkscape.org/namespaces/inkscape"
   xmlns:sodipodi="http://sodipodi.sourceforge.net/DTD/sodipodi-0.dtd"
   xmlns="http://www.w3.org/2000/svg"
   xmlns:svg="http://www.w3.org/2000/svg"><defs
     id="defs4" /><sodipodi:namedview
     id="namedview4"
     pagecolor="#ffffff"
     bordercolor="#000000"
     borderopacity="0.25"
     inkscape:showpageshadow="2"
     inkscape:pageopacity="0.0"
     inkscape:pagecheckerboard="0"
     inkscape:deskcolor="#d1d1d1"
     inkscape:zoom="1.7759538"
     inkscape:cx="681.60557"
     inkscape:cy="389.93131"
     inkscape:window-width="2560"
     inkscape:window-height="1382"
     inkscape:window-x="1728"
     inkscape:window-y="30"
     inkscape:window-maximized="1"
     inkscape:current-layer="svg4" /><path
     fill="#191613"
     stroke="#191613"
     d="m 502.96664,17.724181 c -29.91678,-11.9826598 -62.30417,6.48513 -86.67929,13.33275 -48.18587,13.53673 -97.59412,42.00533 -130.01445,74.098479 -11.25914,9.48552 -28.4134,30.81618 -28.4134,32.42412 0,0.40084 4.57777,2.09336 10.1716,3.76155 5.59384,1.66934 27.49084,8.36992 48.65878,14.89093 54.42086,16.76533 69.66727,21.42352 123.70875,37.79381 26.30873,7.96909 58.28827,17.84503 71.0671,21.94715 27.04109,8.67923 28.08464,8.86923 16.35375,2.96915 -52.30626,-26.30762 -69.37037,-84.24949 -38.93142,-132.191469 20.94362,-32.98618 65.72729,-57.65457 111.30159,-61.30953 l 10.10233,-0.80977 -8.24726,-0.80629 c -26.6485,-2.60539 -64.77334,-7.66134 -93.84765,-6.10088 m 95.49711,18.72469 c -80.88286,3.26214 -130.36639,82.507539 -65.0873,125.181589 33.25072,25.81527 98.14227,33.46579 141.38316,16.66918 26.03602,-10.11341 50.56444,-30.0066 58.11452,-47.1299 12.43466,-28.20519 -10.74452,-68.283499 -49.13711,-84.963109 -21.14138,-14.01553 -57.10953,-17.71692 -85.27327,-9.75776 m 126.12135,15.24774 c 12.5743,7.7374 33.8819,31.70491 40.53908,45.59956 19.57456,40.849859 -5.84676,99.058169 -55.04765,126.048129 -34.99803,19.19811 -82.25916,25.91721 -123.62188,17.57625 -6.60439,-1.33108 -12.24222,-2.17443 -12.52812,-1.87324 -0.70266,0.74026 0.56851,1.12719 15.19033,4.62808 12.10367,2.89732 34.192,9.40675 57.73075,17.01208 14.54816,4.6999 38.89733,12.63424 59.93002,19.52828 9.37437,3.07225 34.85838,11.40974 56.63112,18.52619 26.43613,8.65567 58.08386,19.3199 84.48211,28.10298 21.81563,7.26938 40.1817,13.21811 40.81399,13.21811 2.79417,0 7.27789,-30.55661 11.28715,-50.6004 2.74689,-13.729 2.73149,-48.57683 -0.0275,-62.55721 C 892.40511,162.10195 846.71644,108.06296 771.38826,68.642661 745.83168,55.269321 715.58297,42.938601 729.81553,51.696611 m -201.10755,9.05109 c -21.40656,15.10989 -34.4779,32.25519 -40.56327,53.207219 -3.08227,10.61503 -2.89753,32.11849 0.36947,43.066 17.50837,58.66244 118.13361,91.41577 195.58519,63.66238 33.48933,-11.9994 58.43451,-34.7123 72.5736,-66.07894 8.92902,-19.80746 4.88677,-45.73626 -11.08101,-71.082359 -1.71322,-2.72123 -3.32859,-4.72422 -3.587,-4.45082 -0.25952,0.2734 0.79394,2.51155 2.34112,4.97445 5.94021,9.45656 8.58814,28.132209 6.05677,42.728879 -5.0682,29.23507 -38.38709,55.76627 -84.57939,67.35094 -17.24335,4.3234 -52.96934,5.1239 -72.47243,1.62185 -26.08881,-4.68484 -46.59806,-13.02464 -62.35911,-25.35767 -29.17547,-22.83107 -36.12955,-49.04832 -21.42195,-80.762509 6.66817,-14.37772 12.28729,-21.10494 28.25287,-33.82027 6.66048,-5.30578 1.23599,-2.36444 -9.11486,4.94085 M 246.18511,141.1539 c -40.27003,38.26692 -77.2816,102.88864 -87.65109,145.17275 -2.04631,8.3443 -5.13969,15.40066 -5.13969,16.25445 0,3.28773 95.29422,50.66091 159.69206,79.38625 73.38402,32.7348 199.4108,73.87773 298.30522,97.3865 49.66164,11.80477 120.94318,26.74205 127.61905,26.74205 14.47557,0 74.47927,-54.89627 107.29122,-98.1592 14.78677,-19.49584 43.59379,-53.56573 42.47942,-57.49265 -0.23579,-0.83091 -11.32045,-11.07223 -15.44761,-8.39744 -9.51899,-2.83233 -23.11658,-8.63629 -36.05854,-13.17615 -22.40943,-7.58102 -112.22214,-33.63172 -128.01618,-38.55983 -3.02398,-0.94416 -28.7426,-11.26859 -54.14413,-19.37787 C 629.71331,262.82234 601.74233,256.0872 589.94876,252.3998 578.1552,248.71124 552.42377,240.46527 532.76783,234.07285 470.33429,208.39112 249.83348,142.59563 248.60718,144.65429 m -99.45963,176.34643 c -31.28196,91.74239 120.24341,159.0585 352.28073,218.74748 94.30675,24.28145 131.77456,24.13548 184.55806,-0.7171 11.18877,-5.26754 42.90168,-22.95442 41.97576,-23.17918 -49.84155,-12.09893 -96.00861,-19.14311 -142.41187,-27.84201 -27.564,-13.43294 -29.52721,-8.4177 -36.98638,-1.79813 -28.81589,23.57363 -69.39276,30.14231 -108.38026,24.17157 -73.44885,-28.91437 -186.05055,-35.85239 -168.28617,-132.35942 -0.16055,-0.15987 -4.25119,-2.23816 -9.08957,-4.61765 -4.83839,-2.37949 -32.1093,-16.42937 -60.60299,-31.22184 l -51.80593,-26.89496 -1.25138,5.71124"
     fill-rule="evenodd"
     id="path4-6"
     sodipodi:nodetypes="cscsccccscccscccscccccccscccccsccccccccccccccccccccssccscsccccccccccsccccsscc"
     style="display:inline;fill:#c6c2bc;fill-opacity:1;stroke:none;stroke-width:1.12867"
     inkscape:label="top" /><path
     fill="#666362"
     stroke="#666362"
     d="M 500.78565,1.2966212 C 458.64,4.4824112 441.16352,6.5908112 414.64146,11.688071 345.53611,24.968731 281.88713,51.940151 233.16348,88.591721 170.79448,135.5073 114.54493,198.15834 24.029713,321.53041 -92.420101,467.57282 649.44524,839.17666 924.14337,576.38265 c 40.33451,-58.47824 52.0072,-82.04029 55.38851,-111.79666 3.93235,-34.6034 4.2182,-103.31323 0.5982,-143.43903 C 973.00115,242.15111 950.85127,193.50941 895.62768,135.57797 831.92813,68.756451 741.21497,24.175181 636.59036,8.2740712 597.94704,2.4018012 531.39943,-1.0179928 500.78565,1.2966212 m 4.39853,19.1135398 c -68.0871,3.52985 -120.50882,19.53407 -172.96243,52.80639 -25.26297,16.02507 -51.2759,37.007219 -67.71982,54.621709 l -7.55998,8.09884 9.20943,2.95293 c 19.15451,6.14218 111.11795,34.35896 178.00315,54.61475 24.49433,7.41882 53.6896,16.38651 64.87836,19.92794 11.18877,3.5426 21.08547,6.65539 21.99267,6.91837 0.90719,0.26297 -0.9083,-0.79819 -4.03455,-2.35864 -12.97568,-6.47699 -30.3081,-21.60077 -39.10077,-34.118 -17.61832,-25.0808 -19.99133,-56.93517 -6.44604,-86.517769 16.07003,-35.09575 52.4635,-61.00485 100.03693,-71.2179 6.0051,-1.28937 13.27478,-2.34473 16.15362,-2.34473 11.17777,0 3.31099,-1.1214 -15.52572,-2.21383 -30.34439,-1.75972 -57.56691,-2.17329 -76.92485,-1.17006 m 101.16626,14.28158 c -168.54168,29.95474 -81.56072,182.741099 59.6947,145.840529 3.80143,-0.99396 6.73195,-1.99603 6.51312,-2.22773 -0.21992,-0.23169 -4.81529,0.65569 -10.21119,1.97171 -128.47786,20.7394 -181.5424,-75.30507 -93.38416,-122.016659 22.68433,-12.02025 42.05548,-16.45603 71.47617,-16.36798 37.69982,0.11353 63.03867,9.43919 82.79908,30.47578 l 4.97475,5.29536 -3.44405,-4.75898 c -12.42036,-17.16385 -35.74028,-30.47115 -63.98657,-36.51488 -13.8136,-2.9564 -42.34578,-3.8461 -54.43185,-1.69715 m 123.80002,14.96392 c 4.25448,3.4835 7.61716,5.34864 7.36425,4.08591 -0.16935,-0.84569 -1.72533,-2.1953 -3.45835,-2.99927 -2.96571,-1.37626 -4.92526,-1.92189 -3.9059,-1.08664 m 13.65415,5.99158 c 9.94178,5.07641 23.22425,23.87601 31.7816,44.980949 21.55612,53.16898 9.47554,99.61308 -34.37344,132.14861 -25.01116,18.55864 -69.10645,31.80455 -85.92864,25.81179 -12.78104,-4.55277 -43.08804,-13.64905 -44.18877,-13.26328 -0.67847,0.23865 2.92503,1.62997 8.00753,3.09079 5.0825,1.46198 28.7862,9.07659 52.67573,16.92288 23.88954,7.8463 61.24958,20.10172 83.02232,27.2344 50.42259,16.51857 73.70842,24.19457 107.03391,35.28689 14.7186,4.898 26.86844,8.73368 27.0015,8.524 0.13195,-0.21084 1.7847,-4.03263 3.67277,-8.49272 16.32186,-38.55609 18.62229,-83.96567 6.27781,-123.95594 C 880.57481,144.93028 826.49923,91.456611 750.7334,57.530911 c -11.72319,-5.24901 -15.56751,-6.29395 -6.92879,-1.88367 m -3.2989,2.9008 c 1.09413,1.27432 2.23775,2.31694 2.54015,2.31694 0.3024,0 -0.34639,-1.04262 -1.44052,-2.31694 -1.09413,-1.27431 -2.23775,-2.31693 -2.54015,-2.31693 -0.3024,0 0.34638,1.04262 1.44052,2.31693 m 12.09596,11.58467 c 2.36201,2.54863 4.54259,4.63387 4.84499,4.63387 0.3024,0 -1.38334,-2.08524 -3.74536,-4.63387 -2.362,-2.54862 -4.54257,-4.63386 -4.84497,-4.63386 -0.3024,0 1.38333,2.08524 3.74534,4.63386 m 8.4111,10.48065 c 21.48794,27.878499 21.19103,64.256679 -0.81043,99.175179 -30.28061,48.05899 -90.96497,70.60043 -164.84823,61.23191 -2.84475,-0.36029 -1.87378,0.12975 2.74908,1.389 11.01833,3.00043 48.84242,2.59033 66.50033,-0.72057 64.31645,-12.06196 110.48455,-57.80517 113.51625,-112.47437 0.66308,-11.95537 -1.61647,-23.96056 -6.44935,-33.969709 -2.54236,-5.26524 -11.16678,-17.5334 -13.30447,-18.92587 -0.73125,-0.47614 0.45965,1.45619 2.64682,4.29443 M 224.7106,114.45681 c -16.71663,13.63167 -29.65711,26.1489 -54.95638,53.16203 -38.17926,40.76297 -80.614114,91.34394 -76.634544,91.34394 0.54982,0 1.51419,-1.17236 2.14538,-2.60655 2.43789,-5.53747 45.439064,-56.37215 70.664644,-83.53704 19.53719,-21.03774 44.0854,-44.97167 57.40635,-55.97015 9.67348,-7.98531 11.53186,-9.65351 10.73353,-9.63265 -0.27161,0.008 -4.48321,3.26572 -9.35898,7.24042 m 20.28384,31.99221 c -9.23693,7.66094 -35.03212,40.47103 -49.21079,62.59312 -23.19677,36.19165 -46.56838,89.36991 -41.19557,93.73501 6.75395,5.48882 92.41098,47.61646 150.09116,73.8175 105.75833,48.04161 280.11839,100.06835 421.16065,125.66814 l 13.92356,2.52777 7.58638,-4.19943 c 27.76354,-15.37054 77.77156,-64.99114 106.33234,-105.50851 12.5919,-17.86472 30.38397,-47.5319 29.0787,-48.48763 -0.22103,-0.16335 -7.57757,-2.6749 -16.34714,-5.58149 -8.76958,-2.90775 -30.04748,-10.01031 -47.28424,-15.78295 -32.61182,-10.92319 -89.86093,-29.57913 -128.6571,-41.92723 l -47.28424,-15.09829 c -16.8463,-5.38166 -33.70743,-10.71179 -50.58313,-15.99031 -14.21275,-4.43694 -41.92352,-13.29689 -61.57946,-19.68699 -19.65594,-6.39126 -77.30422,-24.71589 -128.10729,-40.72243 -50.80306,-16.00652 -97.07013,-30.60668 -102.81571,-32.44401 -19.77361,-6.32407 -49.34714,-15.08671 -50.91522,-15.08671 -0.86322,0 -2.75018,0.97891 -4.1929,2.17444 m 641.21268,1.73886 c 0,0.2398 0.86652,1.15267 1.92436,2.02732 1.74402,1.43997 1.78251,1.39943 0.41566,-0.43791 -1.43722,-1.93 -2.34002,-2.54283 -2.34002,-1.58941 m 3.2989,4.63387 c 0,0.2398 0.86652,1.15267 1.92436,2.02732 1.74402,1.43997 1.78251,1.39942 0.41566,-0.4379 -1.43722,-1.93001 -2.34002,-2.54284 -2.34002,-1.58942 m -301.50516,87.23833 c 0.79284,0.3348 1.74182,0.29309 2.1069,-0.0915 0.36508,-0.38462 -0.28371,-0.65802 -1.44272,-0.6082 -1.28108,0.0556 -1.54169,0.33016 -0.66418,0.69971 M 79.345669,275.9934 c -11.661612,17.34919 -24.975973,35.50352 -38.914924,53.05662 -19.318359,24.32895 -11.446084,16.23591 -1.395436,3.51478 21.266909,-26.91581 48.071567,-64.33429 46.086733,-64.33429 -0.307897,0 -2.907431,3.49278 -5.776373,7.76289 m 69.159251,45.14081 c -43.80909,116.46856 250.03657,188.71236 351.18109,216.40853 97.23204,26.62482 135.53531,24.72516 190.78638,-3.01781 12.25542,-6.15378 33.3024,-18.44974 32.67781,-19.09037 -0.13086,-0.13438 -10.38274,-2.12463 -22.78111,-4.42187 -30.01339,-5.56295 -84.2748,-16.9194 -112.1626,-23.47632 -8.28961,-1.95287 -16.58123,-3.89641 -24.8748,-5.83057 -1.61536,-0.36723 -5.02093,1.57088 -11.08981,6.31133 -39.46144,30.82448 -81.11005,34.98685 -146.57452,14.64997 -34.02705,-10.57101 -77.27564,-28.36274 -98.967,-40.71315 -50.43138,-28.71376 -53.0892,-33.906 -38.56524,-75.34784 l 3.37587,-9.63496 c -43.83371,-22.44087 -58.77293,-30.1285 -85.12151,-43.72517 -19.90336,-10.27212 -36.289,-18.67679 -36.41106,-18.67679 -0.12206,0 -0.78514,2.95408 -1.4735,6.56502"
     fill-rule="evenodd"
     id="path2"
     sodipodi:nodetypes="cccccscccccccccccsccccsscccccccccccccsccccccccscccsccccsssccsssccccccssscccsccccccccccccccccccccscsccccccccccscccccsccssscccccccccsc"
     style="display:inline;stroke-width:1.12867"
     inkscape:label="lidar" /><path
     fill="#3e3c3c"
     stroke="#3e3c3c"
     d="m 493.63803,1.8295212 c -31.82669,2.22773 -73.03655,7.98299 -95.11829,13.2829798 C 255.73126,49.383421 178.5227,112.14219 28.280896,316.0636 5.3557404,347.18118 2.4461114,352.0618 0.93521436,361.94815 -0.30407164,370.05626 2.5494764,485.55539 4.2945954,497.93708 7.5791984,521.23384 20.580164,531.31829 84.574425,560.20582 113.84853,573.41972 694.10549,812.61758 735.8796,797.66169 786.75454,769.71087 881.82882,634.7523 915.9192,582.53429 966.00901,505.80915 963.19116,519.46532 981.96209,423.10013 986.47283,316.0972 973.45097,243.9143 940.22991,191.77171 877.76524,93.729521 765.7038,26.877881 631.64201,7.6797712 590.596,1.8028712 530.44055,-0.74806977 493.63803,1.8295212 m 9.34688,18.4810198 c -84.78063,4.79257 -150.96426,31.03995 -214.97832,85.256189 -11.90133,10.07982 -31.81129,30.09233 -30.73145,30.89167 0.27051,0.20042 7.91406,2.61814 16.98603,5.37298 15.82703,4.80647 42.34688,12.92269 96.76774,29.61851 13.91036,4.26779 49.29106,15.04038 78.62378,23.93972 29.33273,8.89933 59.6881,18.2806 67.45591,20.84661 14.42389,4.76477 18.73995,5.40771 10.35415,1.54192 -15.2926,-7.04928 -35.44668,-26.09679 -44.16568,-41.74304 -25.86777,-46.41628 -2.9844,-104.008289 53.1035,-133.651139 17.66561,-9.33608 48.5642,-18.43584 63.52471,-18.70576 13.22309,-0.2398 -0.76974,-1.92769 -22.16531,-2.67374 -41.6497,-1.45272 -58.58516,-1.60911 -74.77506,-0.69392 M 604.701,34.772831 c -66.67407,11.90788 -107.3814,57.44257 -88.03335,98.473149 14.02912,29.7529 46.72012,47.37085 95.73078,51.59347 47.31612,4.07664 89.39688,-11.21048 116.33461,-42.26202 29.25464,-33.72181 1.37454,-85.807639 -55.16861,-103.069939 -20.01443,-6.11092 -49.72542,-8.15329 -68.86343,-4.73466 m -268.86036,17.35383 c -67.59226,23.78333 -118.08522,60.090829 -179.84063,129.318479 -31.1581,34.92662 -64.934454,75.71738 -63.586304,76.79012 0.22433,0.17841 4.2017,2.19298 8.837764,4.47748 10.40143,5.12389 27.5854,16.41547 34.98153,22.98514 3.04379,2.70502 5.67961,4.70221 5.85775,4.44039 0.17814,-0.26181 1.97275,-5.16791 3.98727,-10.90232 29.93642,-85.20754 99.69936,-169.49874 180.66975,-218.294519 6.49004,-3.91097 15.39707,-8.71514 19.79341,-10.67526 4.39633,-1.96012 8.19996,-3.76502 8.45177,-4.01177 1.10844,-1.08664 -2.64132,0.0625 -19.15231,5.87226 m 389.82002,-4.58289 c 0,0.2873 1.7825,1.48631 3.96197,2.66447 4.91427,2.65521 18.89061,15.84783 26.7002,25.20245 14.23146,17.04452 18.78394,28.055749 19.61196,47.432249 2.34992,55.00863 -44.3768,104.1925 -111.30379,117.15806 -15.76653,3.05372 -55.96033,3.06298 -71.27053,0.0162 -15.31349,-3.04677 -14.25124,-1.74002 1.71983,2.11652 13.97084,3.37345 38.81816,11.08884 97.04154,30.13055 18.74875,6.13061 47.69659,15.59413 64.32855,21.02733 16.63196,5.43438 52.85717,17.3967 80.49976,26.5845 27.64259,9.18664 50.71069,16.70393 51.26051,16.70393 1.45701,0 7.13552,-13.92592 11.02602,-27.03746 C 927.33781,214.83216 879.83584,124.67913 771.84525,67.768291 753.1361,57.908581 725.66066,45.876751 725.66066,47.543781 M 238.92886,152.67811 c -36.66947,39.42841 -68.6897,92.70861 -82.95414,138.02435 -1.93755,6.15609 -3.33189,11.37962 -3.09767,11.60784 4.38644,4.27474 107.43748,54.71785 157.87546,77.27899 103.83067,46.44409 283.48327,99.60728 414.96422,122.79747 l 14.90114,2.62856 7.34225,-4.32571 c 28.70154,-16.91015 77.73088,-65.7511 106.11571,-105.70893 11.83536,-16.66107 29.96171,-47.2805 28.68724,-48.46214 -0.56301,-0.52246 -84.41335,-28.60601 -119.71488,-40.09453 -35.76557,-11.64027 -38.82805,-12.62265 -128.10728,-41.07807 -13.30556,-4.23998 -33.09897,-10.48528 -43.98533,-13.87612 -10.88637,-3.39082 -30.43236,-9.65002 -43.43552,-13.90855 -35.86124,-11.74569 -245.9341,-78.10729 -278.75705,-88.05968 -9.67677,-2.93324 -18.34958,-5.56874 -19.27217,-5.85604 -1.03695,-0.32206 -5.07152,3.12902 -10.56198,9.03256 m 647.05944,-4.34889 c 35.04421,46.72908 42.64158,116.17568 19.65045,179.62489 -20.07161,55.39441 -77.79356,129.12039 -133.56367,170.59813 -11.1019,8.25639 -11.15908,8.69082 -1.32946,10.07286 17.13339,2.40729 45.77114,11.32401 70.59866,21.97959 2.4137,1.03568 39.86391,-51.54945 76.30356,-107.13964 60.08944,-91.6683 50.41923,-185.13687 -28.16381,-272.23966 -5.51906,-6.11671 -6.55381,-6.97397 -3.49573,-2.89617 M 75.750967,280.68403 c -7.531389,11.52211 -26.06131,36.19745 -47.191864,62.84682 -10.604863,13.37334 -13.701431,19.48425 -13.595866,26.82892 0.166044,11.64144 8.114194,20.28591 25.873272,28.14495 5.60923,2.4826 19.353546,8.6387 30.542316,13.68149 87.844575,40.30281 174.731485,96.4582 451.017545,183.33018 150.45538,47.30733 220.42205,156.00675 312.54365,-54.11712 -3.18234,-5.42394 -52.82639,-20.32877 -74.91472,-22.49163 -12.39287,-1.21407 -16.09533,-0.0927 -31.72002,9.60833 C 596.34962,607.22205 437.87051,527.22495 302.57894,483.02066 156.9325,422.68424 122.56676,387.66264 135.28512,312.52912 l 1.42402,-8.41047 -5.9996,-6.43643 c -8.88064,-9.52956 -39.594494,-29.45171 -45.403859,-29.45171 -0.776341,0 -5.075907,5.60351 -9.554714,12.45352 m 72.723153,39.91845 c -7.88437,41.88668 7.97564,72.40184 52.93195,101.83965 25.72373,16.84526 82.33505,43.60932 128.38659,60.70017 90.42541,32.20085 260.82075,100.37241 337.58349,62.93034 18.95175,-9.24397 61.22942,-30.84466 56.58667,-31.08872 -7.12776,-0.3747 -127.27376,-24.87344 -151.33483,-31.33189 -11.30093,-3.03403 -11.42299,-3.01201 -19.60097,3.54374 -28.91925,23.18556 -64.1658,32.11502 -102.82451,26.04929 -44.87604,-7.04116 -112.96973,-33.0638 -159.99665,-61.14387 -32.03782,-19.13092 -34.44492,-25.56388 -23.03292,-61.53775 2.406,-7.58217 4.24239,-13.88075 4.08184,-13.9966 -0.16054,-0.11469 -12.41596,-6.37157 -27.23352,-13.90276 -14.81756,-7.53003 -41.04382,-21.09683 -58.28056,-30.14793 -39.29541,-20.63229 -35.83376,-19.52596 -37.26658,-11.91367 m 57.43165,46.02356 c -7.12562,4.5771 -15.6049,24.69851 -13.31876,31.60644 2.14099,6.47004 22.24998,19.51553 32.88674,21.33317 10.1672,1.73886 18.80153,-7.59838 22.38743,-24.20964 2.50386,-11.60088 0.36948,-14.73801 -15.96557,-23.45895 -13.83229,-7.38406 -20.57305,-8.75106 -25.98984,-5.27102 m 1.73852,7.11877 c -3.31869,3.49626 -8.7058,16.0969 -8.7069,20.36586 -9.5e-4,4.70337 4.15002,8.4846 15.88531,14.4704 13.75971,7.01915 18.89719,5.69039 23.9775,-6.19664 5.86655,-13.72667 4.30287,-16.91824 -12.67657,-25.8732 -10.87647,-5.73556 -15.06498,-6.36345 -18.47934,-2.76642"
     fill-rule="evenodd"
     id="path3"
     sodipodi:nodetypes="cccccccscscccscccssccccccccscccccsccsccsccccccccscccscscccccccsscccsccccccccsccccccccscccccccsccccssccscccccccccccccscscc"
     style="display:inline;stroke-width:1.12867"
     inkscape:label="sides" /><path
     d="m 198.85728,393.09989 c 0,5.27218 2.23226,7.55088 12.89651,13.16482 12.88879,6.78514 15.98537,7.63661 19.93745,5.48417 4.02576,-2.19298 8.79266,-12.22761 9.71746,-20.4562 0.78074,-6.93574 0.8852,-6.82684 -14.33592,-14.96623 -10.79401,-5.7738 -18.96265,-6.19138 -22.63872,-3.93585"
     style="display:inline;fill:#6ab45d;fill-opacity:1;fill-rule:evenodd;stroke:none;stroke-width:1.12867"
     id="path1"
     sodipodi:nodetypes="cccccc"
     inkscape:label="button" /><path
     fill="#191613"
     stroke="#191613"
     d="m 504.63436,1.3151612 c -43.27827,3.13365 -62.15128,5.34632 -88.52048,10.3775398 C 288.03079,36.128241 205.47361,91.834271 96.015006,227.68418 64.277393,267.07437 8.1949944,342.27507 3.9680034,351.10954 c -3.85971304,8.06756 -4.09173604,15.46784 -2.407098,76.98938 2.1003,76.73683 2.570943,80.27015 12.1982326,91.4957 14.392001,16.78154 66.572901,40.96338 253.354422,117.40944 120.71225,49.40512 266.45655,105.5838 386.52111,148.98924 62.18647,22.4812 69.25491,24.05787 83.93502,18.71618 4.06094,-1.4782 5.9908,-1.73307 6.2833,-0.83062 6.12598,13.46067 -0.85524,38.57104 14.05001,38.94649 6.9376,-0.005 11.88704,-2.87763 13.93456,-8.0861 1.68793,-4.29328 -0.28811,-12.31334 -7.37524,-29.93246 -3.84872,-9.56545 -3.86082,-9.65234 -1.63956,-11.29157 1.2305,-0.90824 4.8131,-3.96659 7.96025,-6.79672 l 5.72249,-5.14592 19.38764,19.19927 c 21.22952,21.0227 24.43276,23.335 30.00569,21.65059 4.37654,-1.32181 8.06912,-7.27402 7.08274,-11.41437 -0.38927,-1.63692 -8.72119,-10.69265 -19.88907,-21.62163 -10.57077,-10.34279 -19.04894,-18.98379 -18.84222,-19.20158 0.20674,-0.21779 12.19824,0.13438 26.64852,0.78428 46.72672,2.1003 47.71419,1.93348 47.71419,-8.05366 0,-21.62655 -68.17727,-8.70775 -68.17727,-13.65137 0,-0.17145 8.00314,-11.11897 17.78548,-24.32896 39.74184,-53.66481 114.14193,-159.85218 131.90101,-188.252 25.80842,-41.275 29.44928,-54.56145 31.81022,-116.08415 C 986.64323,297.8861 970.28614,227.56717 923.04484,167.44391 848.58427,72.677871 742.0331,18.626131 600.85228,4.0004812 c -20.87105,-2.1617 -80.47337,-3.82525297 -96.21792,-2.68532 m -3.84871,19.0845798 c -27.08275,1.45288 -52.70656,5.42928 -77.14144,12.03622 -48.62806,13.14852 -92.54734,36.71531 -133.8859,71.543679 -11.25914,9.48552 -32.54145,30.45376 -32.54145,32.06172 0,0.40083 4.57778,2.09335 10.17161,3.76154 5.59383,1.66935 27.49084,8.36992 48.65877,14.89092 54.42086,16.76534 69.66728,21.42354 123.70876,37.79383 26.30872,7.96909 58.28826,17.84502 71.0671,21.94714 27.04108,8.67924 28.08463,8.86923 16.35374,2.96916 -52.30626,-26.30762 -69.37037,-84.24949 -38.93141,-132.191479 20.94361,-32.98618 65.72728,-57.65457 111.30158,-61.30953 l 10.10233,-0.80977 -8.24725,-0.80629 c -26.64851,-2.60539 -71.54214,-3.4476 -100.61644,-1.88714 m 102.26589,14.51095 c -84.52002,15.76326 -119.46197,82.967069 -65.08729,125.181599 33.25071,25.81526 98.14227,33.46578 141.38315,16.66917 26.03602,-10.11342 50.56444,-30.00661 58.11452,-47.1299 12.43466,-28.20518 -10.74452,-68.283499 -49.13711,-84.963099 -24.04568,-10.4459 -59.70569,-14.52602 -85.27327,-9.75777 M 336.94028,51.492981 C 286.92236,69.382031 251.32282,90.259911 211.38965,125.12628 180.13036,152.4186 87.595116,256.74084 92.971226,258.62914 c 8.591434,3.01665 37.748214,21.8371 45.338984,29.26403 2.03542,1.99256 3.81353,3.46613 3.95099,3.27499 0.13745,-0.19115 1.08094,-3.0908 2.0981,-6.4434 7.84917,-25.88941 28.90386,-67.46098 48.57519,-95.91061 42.3139,-61.19485 106.24987,-117.582049 160.50028,-141.550719 10.25079,-4.52961 2.28064,-2.48492 -16.49449,4.22955 m 392.23261,-1.33455 c 12.5743,7.7374 33.8819,31.70491 40.53908,45.59957 19.57457,40.849849 -5.84675,99.058169 -55.04765,126.048119 -34.99802,19.19811 -82.25917,25.91722 -123.62188,17.57626 -6.60439,-1.33108 -12.24222,-2.17444 -12.52811,-1.87324 -0.70267,0.74026 0.5685,1.12718 15.19033,4.62807 12.10366,2.89733 34.192,9.40675 57.73075,17.01208 14.54815,4.6999 38.89732,12.63424 59.93001,19.52827 9.37438,3.07227 34.85838,11.40974 56.63112,18.52621 26.43613,8.65566 52.85342,17.37508 79.25168,26.15817 21.81562,7.26938 40.1817,13.21811 40.81398,13.21811 2.79418,0 12.50834,-28.61181 16.51759,-48.6556 2.74689,-13.72899 2.7315,-48.57682 -0.0274,-62.5572 C 891.76247,160.56378 846.0738,106.52479 770.74562,67.104481 745.18905,53.731141 714.94033,41.400421 729.17289,50.158431 m -201.10754,9.0511 c -21.40657,15.10988 -34.4779,32.25519 -40.56328,53.207219 -3.08227,10.61503 -2.89753,32.11848 0.36948,43.066 17.50836,58.66243 118.1336,91.41576 195.58518,63.66237 33.48933,-11.9994 58.43452,-34.71229 72.5736,-66.07893 8.92903,-19.80747 4.88677,-45.73627 -11.081,-71.082369 -1.71323,-2.72124 -3.3286,-4.72422 -3.58701,-4.45082 -0.25951,0.27339 0.79394,2.51155 2.34112,4.97445 5.94022,9.45657 8.58814,28.132209 6.05678,42.728889 -5.06821,29.23507 -38.38709,55.76627 -84.57939,67.35093 -17.24335,4.3234 -52.96934,5.1239 -72.47244,1.62185 -26.0888,-4.68483 -46.59806,-13.02463 -62.3591,-25.35767 -29.17548,-22.83106 -36.12956,-49.04832 -21.42196,-80.762509 6.66817,-14.37773 12.2873,-21.10494 28.25288,-33.82027 6.66047,-5.30578 1.23598,-2.36443 -9.11486,4.94086 m 351.54398,81.388079 c 0,0.52594 1.28327,2.21962 2.85134,3.76501 4.29297,4.22841 14.50857,21.07483 19.26998,31.77906 38.90283,87.45729 12.07177,180.10334 -80.3623,277.48637 -15.48724,16.317 -35.54895,34.41456 -50.53805,45.59145 -11.07551,8.25871 -11.13819,7.85324 1.56478,10.0358 17.6744,3.03634 43.4564,10.83166 60.90649,18.41614 4.46781,1.94159 8.6739,3.51479 9.34688,3.49394 1.83749,-0.0556 47.6713,-65.43484 72.2525,-103.06646 31.04375,-47.52378 42.44585,-82.50832 41.34511,-126.85211 -1.31405,-52.91065 -18.75094,-93.28784 -63.45103,-146.93065 -12.0146,-14.41826 -13.1857,-15.63697 -13.1857,-13.71855 m -643.69896,15.32651 c -33.25402,36.5612 -62.82755,85.40796 -78.01899,128.86436 -2.82715,8.08726 -5.13969,15.40065 -5.13969,16.25445 0,3.28772 95.29423,50.6609 159.69206,79.38624 73.38403,32.73479 199.4108,73.87774 298.30522,97.3865 49.66164,11.80478 120.94318,26.74205 127.61905,26.74205 14.47557,0 74.47927,-54.89627 107.29122,-98.15921 14.78677,-19.49582 37.24898,-55.33878 37.24898,-59.43745 0,-0.39619 -5.56634,-2.57063 -12.37087,-4.83195 -6.80344,-2.26018 -23.9995,-8.0444 -38.21226,-12.85203 -22.40943,-7.58101 -107.91471,-35.57652 -123.70875,-40.50464 -3.02399,-0.94414 -26.28124,-8.35138 -51.68277,-16.46065 -25.40153,-8.11042 -55.83387,-17.76277 -67.62745,-21.45017 -11.79356,-3.68856 -37.52498,-11.93452 -57.18093,-18.32694 -60.10375,-19.54565 -282.15271,-89.41856 -284.16065,-89.41856 -0.22212,0 -5.64662,5.76337 -12.05417,12.808 M 75.134072,281.26326 c -9.320491,14.0163 -25.928253,36.30866 -38.190265,51.26216 -12.323591,15.02879 -20.387202,26.93318 -21.686968,32.01538 -3.238421,12.67247 4.88897,24.68113 22.033353,32.55639 68.478568,31.45584 192.332468,83.33662 266.111268,111.47114 18.34038,6.99495 36.66763,14.02801 54.98167,21.09915 29.70659,11.50242 74.84984,28.51565 105.56479,39.78291 l 69.27691,25.50827 c 87.8519,32.41391 179.78125,64.94364 186.11074,65.85536 24.11386,3.47424 29.03252,-1.42724 111.15204,-110.75868 l 6.28659,-8.36993 -7.7755,-4.12645 c -16.53738,-8.77307 -61.02305,-19.66961 -76.94684,-18.84594 l -9.34689,0.48308 -16.49449,10.24664 C 657.34044,572.22955 610.71709,576.96768 509.58271,551.4594 377.9368,518.25543 225.74536,456.49177 172.29878,414.58193 c -31.5111,-24.71126 -44.60113,-58.10174 -37.69104,-96.14579 2.54566,-14.01745 2.48518,-14.28737 -4.96593,-21.96105 -10.2277,-10.53278 -37.981344,-28.24458 -44.256956,-28.24458 -0.872009,0 -5.48497,5.86532 -10.250782,13.03275 m 73.370848,38.19928 c -9.55583,43.61164 10.29256,77.9903 63.31028,109.66046 57.42615,34.3022 183.80261,82.01017 288.97045,109.08701 94.30675,24.28146 131.77455,24.1355 184.55805,-0.71708 11.18878,-5.26756 39.55162,-21.38414 38.87974,-22.09197 -0.11986,-0.12627 -11.59784,-2.37485 -25.506,-4.99646 -32.88893,-6.20011 -86.72588,-17.52181 -113.80985,-23.93276 -26.03052,-6.16305 -23.58604,-6.1642 -31.13831,0.0139 -28.8159,23.57365 -63.8887,32.67919 -102.8762,26.70845 -45.08937,-6.90446 -112.90156,-32.68034 -160.34964,-60.94925 -32.20605,-19.18768 -34.73961,-25.86045 -23.39469,-61.60609 2.41919,-7.62388 4.26658,-13.99197 4.10603,-14.153 -0.16054,-0.15986 -4.25119,-2.23815 -9.08957,-4.61764 -4.83839,-2.3795 -32.1093,-16.42938 -60.60299,-31.22184 l -51.80593,-26.89496 -1.25137,5.71124 m 816.34797,33.5967 c -3.02728,13.1567 -7.98992,27.17299 -13.64864,38.54798 -10.50479,21.1142 -47.45578,77.83853 -86.02872,132.06519 -5.43878,7.64588 -11.19426,15.90691 -12.78983,18.35823 l -2.90083,4.45777 -0.39477,54.91364 c -0.23752,33.10319 0.009,54.9148 0.6213,54.9148 0.55861,0 2.25534,-1.97403 3.77064,-4.38711 1.51639,-2.41309 15.56531,-22.35378 31.21968,-44.31136 72.99037,-102.38064 77.49226,-111.11201 81.79069,-158.66707 1.13814,-12.60063 1.81995,-102.71776 0.78513,-103.80904 -0.26719,-0.28151 -1.35912,3.28078 -2.42465,7.91697 m -758.95702,13.57259 c -6.76824,4.34772 -15.51032,24.94642 -13.35394,31.46396 1.63955,4.95476 7.82389,10.01726 19.50529,15.96598 20.0958,10.23621 29.62743,5.43321 35.25864,-17.76393 3.03939,-12.51607 0.86102,-15.74704 -17.03002,-25.25805 -11.9673,-6.3623 -19.27987,-7.6841 -24.37997,-4.40796 m 2.64352,5.96494 c -2.93492,1.7991 -9.6031,16.59041 -9.6031,21.29841 0,5.27219 2.23226,7.55089 12.89651,13.16482 12.88879,6.78514 15.98536,7.63661 19.93745,5.48418 4.02576,-2.19297 8.79266,-12.22761 9.71746,-20.45621 0.78074,-6.93573 0.8852,-6.82684 -14.33592,-14.96623 -10.79401,-5.7738 -14.93633,-6.7805 -18.6124,-4.52497 m 71.32882,31.16855 c -5.55865,21.79192 -4.8186,23.51572 16.33396,38.05447 29.44817,20.23957 70.52498,38.3047 118.81208,52.25033 45.73154,13.20884 76.4718,13.60156 103.85047,1.3276 14.14348,-6.34029 14.15227,-6.19201 -0.69168,-11.04135 C 440.08258,458.85046 394.91075,441.34719 336.23431,413.85909 308.86334,401.03602 301.63655,398.0356 290.03982,394.67836 l -7.31367,-2.11768 -2.85794,11.20469 M 17.768401,431.28243 c 1.77041,59.23703 2.413696,68.78975 4.987937,74.02023 6.993668,14.20859 36.477037,29.15397 150.888392,76.48545 l 42.8857,17.73843 c 10.58397,4.37785 30.12995,12.47901 43.43551,18.00258 64.43082,26.74783 157.87876,63.64499 255.11494,100.73215 13.91036,5.30578 31.72442,12.10945 39.5868,15.11915 26.00523,9.95354 96.98655,36.09551 140.20325,51.63518 18.66957,6.71215 34.88477,7.29138 45.63478,1.6288 l 6.5978,-3.4754 0.2848,-56.4208 0.28591,-56.4208 -3.58481,1.55582 c -16.44501,7.13615 -17.43358,6.91835 -91.55437,-20.19092 -22.98234,-8.40583 -58.11562,-21.17214 -78.07397,-28.36854 -19.95834,-7.19755 -49.64844,-18.14506 -65.97799,-24.32779 -16.32956,-6.18274 -51.21543,-19.23055 -77.52415,-28.99526 -53.9722,-20.0311 -63.16405,-23.51461 -136.90435,-51.87387 -80.62842,-31.00753 -166.40422,-66.13687 -215.528139,-88.26822 -10.281572,-4.6327 -26.56824,-11.41437 -36.193331,-15.07049 -9.62509,-3.65728 -19.026955,-7.62965 -20.893033,-8.82867 -1.866078,-1.19901 -3.640886,-2.18255 -3.943285,-2.18603 -0.3024,-0.005 -0.18034,12.37474 0.271609,27.50896 M 830.16651,574.77817 c -38.84784,49.93571 -45.85141,58.67287 -61.54098,76.77391 l -9.42605,10.87452 -0.35958,55.15808 -0.36068,55.15807 -3.66288,2.89617 c -5.23316,4.13805 -3.9334,4.2342 1.777,0.13207 5.25295,-3.77313 16.89917,-16.11776 26.35271,-27.93527 15.97878,-19.97081 53.84246,-70.69659 54.84531,-73.47343 1.21621,-3.37114 1.27449,-33.52719 0.15506,-80.46941 l -0.67298,-28.24922 -7.10693,9.13451"
     fill-rule="evenodd"
     id="path4"
     sodipodi:nodetypes="ccccccsccccscsscccccscsscccccccscsccccscccscccscccccccsccccccccscccccscccccccccccccccccccccccscccccsccssccscsccccccsccccccccccscccccscccscccccscccccccssccccscccscccsccccccccscccccccccccccccccccsccscccsscsccccscccscccscccccc"
     style="display:inline;stroke-width:1.12867;stroke:none"
     inkscape:label="outline" /></svg>
